<?xml version="1.0" encoding="utf-8"?>
<!-- Generator: Adobe Illustrator 24.0.1, SVG Export Plug-In . SVG Version: 6.00 Build 0)  -->
<svg version="1.1" id="Layer_1" xmlns="http://www.w3.org/2000/svg" xmlns:xlink="http://www.w3.org/1999/xlink" x="0px" y="0px"
	 viewBox="0 0 566.93 406.93" style="enable-background:new 0 0 566.93 406.93;" xml:space="preserve">
<style type="text/css">
	.st0{fill:#3D2DB2;}
</style>
<path class="st0" d="M116.96,400.79c-14.14,1.75-22.24-7.96-30.87-16.24c-9.56-9.17-18.84-18.65-28-28.22
	c-11.55-12.06-22.96-24.27-34.26-36.57c-10.18-11.08-11.44-24.28-8.99-38.5c6.58-38.13,12.99-76.28,19.26-114.46
	c1.18-7.17,2.01-14.2,6.7-20.26c4.34-5.61,9.99-8.41,16.75-8.24c26.21,0.65,52.41,1.63,78.61,2.49c9.03,0.3,18.07,0.92,27.1,0.9
	c16.26-0.03,31.16,4.64,45.28,12.26c22.54,12.16,44.99,24.49,67.62,36.49c7.38,3.91,14.63,7.8,19.55,14.82
	c3.76,5.37,4.97,11.22,3,17.61c-7.66,24.92-15.24,49.87-22.98,74.77c-5.64,18.13-11.21,36.29-17.35,54.25
	c-3.11,9.1-7.86,17.63-17.58,21.29c-7.03,2.65-14.35,4.65-21.69,6.31c-29.55,6.66-59.15,13.13-88.76,19.54
	C125.97,399.97,121.43,400.22,116.96,400.79z M286.89,227.63c0.08-9.58-2.31-12.02-10.61-11.73c-29.1,1.02-58.2,2.13-87.3,3.17
	c-23.14,0.82-35.67,10.51-41.06,32.93c-9.85,41.03-19.32,82.15-28.89,123.25c-0.37,1.59-0.43,3.31-0.29,4.94
	c0.55,6.34,4.12,9.07,10.37,8.03c5.06-0.84,10.14-1.56,15.15-2.65c24.75-5.37,49.41-11.22,74.25-16.14
	c17.28-3.42,28.19-12.74,33.44-29.63c10.82-34.81,22.16-69.47,33.21-104.21C286.11,232.6,286.51,229.44,286.89,227.63z
	 M136.05,240.48c-0.32-18.14-3.88-29.73-16.17-37.91C97.66,187.78,75.91,172.29,54.02,157c-2.7-1.89-4.83-1.33-5.88,1.26
	c-1.91,4.7-3.8,9.53-4.7,14.49c-5,27.58-9.88,55.19-14.44,82.85c-1.98,12.01-3.68,24.12-4.43,36.25
	c-0.51,8.24,2.33,15.96,8.25,22.32c8.43,9.05,16.45,18.48,24.94,27.47c11.5,12.17,23.28,24.07,34.94,36.09
	c5.12,5.27,7.81,4.75,10.05-2.1c1.5-4.58,2.98-9.18,4.16-13.85c7.9-31.42,15.82-62.83,23.5-94.31
	C132.95,257.11,134.79,246.59,136.05,240.48z M67.41,148.77c2.06,1.54,2.99,2.3,3.97,2.96c19.95,13.55,39.84,27.2,59.9,40.59
	c12.56,8.39,26.39,13.32,41.69,12.83c33.3-1.09,66.6-2.38,99.9-3.61c0.18-0.01,0.34-0.37,0.77-0.87
	c-6.75-3.76-13.43-7.48-20.88-11.63c2.79,6.95,1.7,8.79-4.7,9.8c-9.52,1.5-18.27-0.59-26.31-5.77c-2.75-1.77-5.33-3.81-3.92-7.68
	c1.3-3.54,4.14-4.6,7.64-4.12c5.56,0.76,11.11,1.6,17.82,2.57c-16.65-9-32.36-17.49-48.25-26.08c0.38,5.65-1.84,8.73-7.41,8.15
	c-6.93-0.73-13.86-2.51-20.5-4.71c-4.35-1.44-7.81-4.66-5.28-10.74c-18.2-0.66-35.78-1.29-54.06-1.95c4.99,2.65,9.3,4.67,13.27,7.22
	c1.2,0.77,2.1,3.09,1.92,4.55c-0.13,1.09-2.08,2.49-3.45,2.82c-9.57,2.27-18.91,1.69-27.53-3.47c-1.98-1.18-4.37-2.93-4.91-4.88
	c-0.46-1.68,1.44-4.02,2.26-5.98C82.78,148.77,75.75,148.77,67.41,148.77z"/>
<path class="st0" d="M551.49,189.5c0.37,10.78-1.19,21.09-10.05,28.33c-5.33,4.35-11.46,7.79-17.49,11.19
	c-20.2,11.41-40.52,22.6-60.76,33.93c-12.62,7.07-25.03,14.51-37.81,21.26c-5.79,3.05-12.12,5.35-18.46,7.01
	c-6.11,1.6-11.95-0.05-16.61-4.76c-20.65-20.86-41.6-41.44-61.86-62.67c-12.4-12.99-19.49-28.98-23.98-46.45
	c-7.5-29.2-16.11-58.11-23.76-87.27c-1.87-7.13-2.45-14.75-2.53-22.16c-0.08-7.61,4.85-12.24,11.74-15.01
	c25.18-10.12,50.31-20.35,75.48-30.49c13.83-5.57,27.59-11.35,41.57-16.51c14.25-5.26,28.53-5.26,42.62,1.27
	c20.23,9.38,40.55,18.55,60.83,27.82c3.42,1.57,6.78,3.27,10.2,4.84c14.9,6.87,21.87,18.39,22.76,34.88
	c1.37,25.22,4.07,50.37,5.96,75.57C550.34,163.32,550.8,176.42,551.49,189.5z M540.68,172.57c0.07-0.01,0.15-0.01,0.22-0.02
	c-1.44-19.85-2.88-39.71-4.31-59.56c-0.73-10.08-1.26-20.17-2.22-30.23c-1.2-12.45-7.76-16.49-19.05-11.55
	c-37.42,16.38-74.87,32.72-112.05,49.66c-6.64,3.03-12.64,8.22-17.84,13.49c-6.77,6.87-9.56,15.83-7.46,25.48
	c7.82,36.08,15.87,72.11,23.89,108.15c1.34,6.04,4.78,8.94,10.85,8.55c3.19-0.21,6.59-1.15,9.4-2.68
	c30.99-16.87,61.91-33.86,92.76-50.97c4.98-2.76,9.92-5.85,14.22-9.55c8.47-7.31,13.76-16.28,12.29-28.14
	C540.86,181.04,540.89,176.79,540.68,172.57z M517.48,52.05c-0.05-0.51-0.11-1.02-0.16-1.53c-3.75-2.18-7.37-4.64-11.28-6.5
	c-18.37-8.73-36.8-17.35-55.25-25.9c-13.79-6.39-27.89-7.18-42.16-1.67c-33.45,12.9-66.91,25.76-100.26,38.9
	c-5.34,2.1-10.16,5.53-15.71,8.62c1.73,1.68,2.62,2.69,3.65,3.53c16.1,13.17,32.19,26.36,48.37,39.44c2.44,1.97,5.27,3.51,8.03,5.04
	c6.67,3.71,13.78,5.69,21.3,3.44c10.07-3.01,20.37-5.67,29.95-9.89c28.67-12.65,57.09-25.89,85.51-39.13
	C498.95,61.97,508.14,56.85,517.48,52.05z M289.07,80.77c0.07,1.26,0,1.86,0.15,2.38c10.05,35.51,19.99,71.06,30.26,106.51
	c2.71,9.34,7.53,17.75,14.34,24.86c16.48,17.21,32.96,34.42,49.45,51.62c0.99,1.04,2.08,1.98,3.91,3.72
	c-0.42-2.85-0.57-4.62-0.95-6.34c-3.45-15.75-6.84-31.52-10.43-47.24c-4.69-20.56-9.12-41.19-14.48-61.57
	c-3.88-14.77-11.99-27.15-24.47-36.53c-12.05-9.06-23.79-18.56-35.66-27.86C297.29,87.27,293.41,84.2,289.07,80.77z"/>
<path class="st0" d="M197.4,255.11c-0.05,12.03-9.33,22.99-20.67,24.4c-7.34,0.91-12.61-2.89-14.05-10.16
	c-2.44-12.24,8.53-26.92,21.01-28.13C192.19,240.4,197.44,245.71,197.4,255.11z"/>
<path class="st0" d="M173.09,345.63c-0.31,10.7-9.29,21.08-19.67,22.75c-7.81,1.25-13.68-3.61-13.86-11.47
	c-0.28-12.11,12.45-24.12,24.57-23.16C169.86,334.2,173.29,338.75,173.09,345.63z"/>
<path class="st0" d="M222.84,296.15c-0.03,9.15-10.11,21.59-19.07,23.54c-5.81,1.27-10.61-1.62-12.57-7.56
	c-3.9-11.81,7.98-28.18,20.44-28.15C218.21,284,222.87,289.06,222.84,296.15z"/>
<path class="st0" d="M269.95,249.96c-0.86,8.05-5.36,15.78-14.33,20.1c-8.44,4.06-15.49-0.44-16.25-9.75
	c-0.84-10.31,9.06-23.15,19.24-24.96C264.56,234.3,270.03,240.46,269.95,249.96z"/>
<path class="st0" d="M244.58,331.77c0.06,8.96-9.07,20.58-17.82,22.68c-4.65,1.12-8.23-0.55-10.3-5.05
	c-3.01-6.55-1.47-12.66,2.37-18.3c4-5.88,9.35-9.88,16.8-9.68C241.22,321.56,244.54,325.68,244.58,331.77z"/>
<path class="st0" d="M121.66,243.43c0.01,5.91-1.37,11.38-5.35,15.93c-3.92,4.49-8.96,4.87-13.6,1.1
	c-8.52-6.92-10.84-25.2-4.33-34.14c5.06-6.95,14.08-7.04,18.34,0.45c2.82,4.96,4.08,10.81,6.03,16.26
	C122.4,243.17,122.03,243.3,121.66,243.43z"/>
<path class="st0" d="M111.68,291.6c-1.68,4.38-2.66,9.24-5.21,13.04c-4.01,5.99-10.95,5.8-15.74,0.38
	c-6.34-7.17-7.61-24.5-2.38-32.49c4.11-6.28,10.92-6.78,15.91-1.17c3.85,4.32,6.2,11.69,6.3,19.82
	C110.94,291.31,111.31,291.46,111.68,291.6z"/>
<path class="st0" d="M75.44,329.71c0.89-3.61,1.28-7.44,2.78-10.78c2.93-6.55,10.55-7.78,15.79-2.87c1.19,1.11,2.42,2.43,3,3.9
	c3.2,8.15,4.47,16.65,2.05,25.15c-2.14,7.51-9.64,9.23-15.75,3.96C77.44,344.01,76.07,337.17,75.44,329.71z"/>
<path class="st0" d="M44.41,201.55c0.89-4.77,1.26-8.53,2.34-12.08c1.26-4.14,3.95-7.01,8.74-7.24c4.99-0.24,8.79,1.98,10.42,6.38
	c2.91,7.9,3.64,16.17,0.79,24.29c-1.5,4.26-4.85,6.98-9.51,7.21c-4.4,0.22-7.65-2.34-9.22-6.11
	C46.22,209.8,45.41,205.21,44.41,201.55z"/>
<path class="st0" d="M37.19,241.62c0.6-3.2,0.8-6.54,1.9-9.56c1.31-3.59,4.21-5.93,8.2-6.14c4.19-0.23,7.45,1.88,9.07,5.55
	c3.71,8.41,4.63,17.28,0.94,25.79c-1.24,2.87-4.89,6.11-7.76,6.45c-2.5,0.29-6.11-2.74-8.07-5.22
	C37.67,253.7,37.22,247.72,37.19,241.62z"/>
<path class="st0" d="M52.17,290.41c-0.9,2.16-2.22,6.47-4.38,10.3c-2.8,4.96-8.1,5.3-12.02,1.26c-5.97-6.15-8.24-18.93-4.62-26.67
	c0.75-1.6,1.81-3.16,3.04-4.42c4.46-4.56,7.46-4.46,11.74,0.26C50.3,275.94,52,281.75,52.17,290.41z"/>
<path class="st0" d="M154.36,181.49c6.69,2,13.93,3.92,20.97,6.38c3.68,1.28,5.91,4.44,5.36,8.5c-0.52,3.87-3.94,4.58-7.14,5.08
	c-11.26,1.77-21.17-1.7-30.16-8.14c-3.92-2.81-3.67-6.86,0.63-8.96C146.88,182.94,150.25,182.58,154.36,181.49z"/>
<path class="st0" d="M485.96,119.33c-0.65-11.9,7.01-22.53,18.21-25.29c8.06-1.98,14.84,2.02,16.93,9.99
	c2.83,10.8-3.31,23.88-13.33,28.4C495.92,137.79,486.67,132.23,485.96,119.33z"/>
<path class="st0" d="M486.26,170.58c-0.3,12.39-8.58,22.58-19.02,24.43c-10.31,1.82-19.3-7.41-16.73-17.62
	c1.88-7.45,5.73-13.93,12.24-18.42c5.39-3.72,11.34-4.5,17.09-1.41C485.23,160.46,485.92,166.1,486.26,170.58z"/>
<path class="st0" d="M452.1,231.4c0.05,10.82-8.97,21.57-19.59,23.35c-10.84,1.82-18.83-6.56-16.43-17.59
	c2.11-9.73,8.18-16.34,17.65-19.36C444.34,214.41,452.06,220.29,452.1,231.4z"/>
<path class="st0" d="M466.26,66.47c-4.11-0.78-8.42-1.01-12.28-2.45c-7.14-2.68-8.4-9.71-3.17-15.2c6.79-7.12,26.28-9.35,34.48-3.95
	c5.52,3.64,6.04,9.71,1.15,14.59C480.87,65.01,473.8,66.08,466.26,66.47z"/>
<path class="st0" d="M331.85,72.44c-4.2-1.74-8.78-2.9-12.48-5.37c-4.32-2.88-4.47-6.78-1.34-10.93c1.33-1.77,3.01-3.47,4.89-4.59
	c7.47-4.45,15.64-6.17,24.25-4.97c4.54,0.63,8.57,2.85,9.79,7.57c1.22,4.7-1.76,8.05-5.33,10.6c-5.75,4.11-12.14,6.59-19.33,6.61
	C332.16,71.71,332.01,72.07,331.85,72.44z"/>
<path class="st0" d="M347.85,183c-0.2,4.78-0.67,9.01-4.51,9.65c-2.64,0.44-6.61-1.22-8.5-3.3c-6.19-6.81-9.69-15.15-10.91-24.31
	c-0.45-3.36-0.36-6.97,3.33-8.58c3.63-1.59,6.97,0.1,9.41,2.68C343.31,166.13,346.82,174.63,347.85,183z"/>
</svg>
